# xmcd
#
# Track frame offsets:
# 150
# 13850
# 32397
# 48237
# 64602
# 80580
# 94575
# 112800
# 125797
# 139357
# 153545
# 173357
# 189297
# 208885
# 224295
# 236652
# 252917
# 266312
# 290450
# 303760
#
# Disc length: 4253 seconds
#
#
# Revision: 0
# Processed by: cddbd v1.5.2PL0 Copyright (c) Steve Scherf et al.
# Submitted via: FreeRIP 2.944 
#
DISCID=10109b14
DTITLE=Os melhores do ano do forró - Forró Tropical
DYEAR=1900
DGENRE=Forró
TTITLE0=Diana
TTITLE1=Cobertor
TTITLE2=Meu ex
TTITLE3=Feira dançante
TTITLE4=Cunhada boa
TTITLE5=Meu cenário
TTITLE6=Balançando o esqueleto - Lágrimas de crocodilo
TTITLE7=Moda da pinga
TTITLE8=Feia que dói
TTITLE9=Meu mel
TTITLE10=Morango do nordeste
TTITLE11=Anúnico de jornal
TTITLE12=Lamento de um nordestino
TTITLE13=Todo tempo é pouco pra te amar
TTITLE14=Cici
TTITLE15=Raios de neon
TTITLE16=Zoião
TTITLE17=Vaqueiro apaixonado
TTITLE18=Peão apaixonado
TTITLE19=Cândida
EXTD=
EXTT0=
EXTT1=
EXTT2=
EXTT3=
EXTT4=
EXTT5=
EXTT6=
EXTT7=
EXTT8=
EXTT9=
EXTT10=
EXTT11=
EXTT12=
EXTT13=
EXTT14=
EXTT15=
EXTT16=
EXTT17=
EXTT18=
EXTT19=
PLAYORDER=
